<svg width="30" height="30" viewBox="0 0 30 30" fill="none" xmlns="http://www.w3.org/2000/svg">
<path d="M12.37 19.835V27H11.52V21.735C11.52 21.665 11.5217 21.59 11.525 21.51C11.5317 21.43 11.5383 21.3483 11.545 21.265L9.085 25.745C9.00833 25.895 8.89167 25.97 8.735 25.97H8.595C8.43833 25.97 8.32167 25.895 8.245 25.745L5.735 21.245C5.755 21.4217 5.765 21.585 5.765 21.735V27H4.915V19.835H5.63C5.71667 19.835 5.78333 19.8433 5.83 19.86C5.87667 19.8767 5.92167 19.9233 5.965 20L8.44 24.41C8.48 24.49 8.51833 24.5733 8.555 24.66C8.595 24.7467 8.63167 24.835 8.665 24.925C8.69833 24.835 8.73333 24.7467 8.77 24.66C8.80667 24.57 8.84667 24.485 8.89 24.405L11.32 20C11.36 19.9233 11.4033 19.8767 11.45 19.86C11.5 19.8433 11.5683 19.835 11.655 19.835H12.37ZM17.2259 23.915C17.2259 23.7083 17.1959 23.52 17.1359 23.35C17.0792 23.1767 16.9942 23.0283 16.8809 22.905C16.7709 22.7783 16.6359 22.6817 16.4759 22.615C16.3159 22.545 16.1342 22.51 15.9309 22.51C15.5042 22.51 15.1659 22.635 14.9159 22.885C14.6692 23.1317 14.5159 23.475 14.4559 23.915H17.2259ZM17.9459 26.29C17.8359 26.4233 17.7042 26.54 17.5509 26.64C17.3975 26.7367 17.2325 26.8167 17.0559 26.88C16.8825 26.9433 16.7025 26.99 16.5159 27.02C16.3292 27.0533 16.1442 27.07 15.9609 27.07C15.6109 27.07 15.2875 27.0117 14.9909 26.895C14.6975 26.775 14.4425 26.6017 14.2259 26.375C14.0125 26.145 13.8459 25.8617 13.7259 25.525C13.6059 25.1883 13.5459 24.8017 13.5459 24.365C13.5459 24.0117 13.5992 23.6817 13.7059 23.375C13.8159 23.0683 13.9725 22.8033 14.1759 22.58C14.3792 22.3533 14.6275 22.1767 14.9209 22.05C15.2142 21.92 15.5442 21.855 15.9109 21.855C16.2142 21.855 16.4942 21.9067 16.7509 22.01C17.0109 22.11 17.2342 22.2567 17.4209 22.45C17.6109 22.64 17.7592 22.8767 17.8659 23.16C17.9725 23.44 18.0259 23.76 18.0259 24.12C18.0259 24.26 18.0109 24.3533 17.9809 24.4C17.9509 24.4467 17.8942 24.47 17.8109 24.47H14.4259C14.4359 24.79 14.4792 25.0683 14.5559 25.305C14.6359 25.5417 14.7459 25.74 14.8859 25.9C15.0259 26.0567 15.1925 26.175 15.3859 26.255C15.5792 26.3317 15.7959 26.37 16.0359 26.37C16.2592 26.37 16.4509 26.345 16.6109 26.295C16.7742 26.2417 16.9142 26.185 17.0309 26.125C17.1475 26.065 17.2442 26.01 17.3209 25.96C17.4009 25.9067 17.4692 25.88 17.5259 25.88C17.5992 25.88 17.6559 25.9083 17.6959 25.965L17.9459 26.29ZM19.9591 22.67C20.0691 22.5467 20.1857 22.435 20.3091 22.335C20.4324 22.235 20.5624 22.15 20.6991 22.08C20.8391 22.0067 20.9857 21.9517 21.1391 21.915C21.2957 21.875 21.4641 21.855 21.6441 21.855C21.9207 21.855 22.1641 21.9017 22.3741 21.995C22.5874 22.085 22.7641 22.215 22.9041 22.385C23.0474 22.5517 23.1557 22.7533 23.2291 22.99C23.3024 23.2267 23.3391 23.4883 23.3391 23.775V27H22.4441V23.775C22.4441 23.3917 22.3557 23.095 22.1791 22.885C22.0057 22.6717 21.7407 22.565 21.3841 22.565C21.1207 22.565 20.8741 22.6283 20.6441 22.755C20.4174 22.8817 20.2074 23.0533 20.0141 23.27V27H19.1191V21.935H19.6541C19.7807 21.935 19.8591 21.9967 19.8891 22.12L19.9591 22.67ZM28.8602 21.935V27H28.3302C28.2036 27 28.1236 26.9383 28.0902 26.815L28.0202 26.27C27.8002 26.5133 27.5536 26.71 27.2802 26.86C27.0069 27.0067 26.6936 27.08 26.3402 27.08C26.0636 27.08 25.8186 27.035 25.6052 26.945C25.3952 26.8517 25.2186 26.7217 25.0752 26.555C24.9319 26.3883 24.8236 26.1867 24.7502 25.95C24.6802 25.7133 24.6452 25.4517 24.6452 25.165V21.935H25.5352V25.165C25.5352 25.5483 25.6219 25.845 25.7952 26.055C25.9719 26.265 26.2402 26.37 26.6002 26.37C26.8636 26.37 27.1086 26.3083 27.3352 26.185C27.5652 26.0583 27.7769 25.885 27.9702 25.665V21.935H28.8602Z" fill="black"/>
<line x1="6" y1="5" x2="24" y2="5" stroke="black" stroke-width="2" stroke-linecap="round"/>
<line x1="6" y1="13" x2="16" y2="13" stroke="black" stroke-width="2" stroke-linecap="round"/>
</svg>
